<svg xmlns="http://www.w3.org/2000/svg" xmlns:xlink="http://www.w3.org/1999/xlink" width="500" zoomAndPan="magnify" viewBox="0 0 375 374.999991" height="500" preserveAspectRatio="xMidYMid meet" version="1.0"><defs><clipPath id="c48f2a16a2"><path d="M 0 0 L 238 0 L 238 374.25 L 0 374.25 Z M 0 0 " clip-rule="nonzero"/></clipPath><clipPath id="f148b46fc6"><path d="M 268.261719 71.109375 L 304.34375 71.109375 L 304.34375 143.363281 L 268.261719 143.363281 Z M 268.261719 71.109375 " clip-rule="nonzero"/></clipPath></defs><g clip-path="url(#c48f2a16a2)"><path fill="#333333" d="M 80.777344 0.015625 L 0 0.015625 L 156.960938 374.492188 L 237.730469 374.492188 Z M 67.105469 20.566406 L 206.835938 353.941406 L 170.628906 353.941406 L 30.898438 20.566406 L 67.105469 20.566406 " fill-opacity="1" fill-rule="nonzero"/></g><path fill="#333333" d="M 294.222656 0.015625 L 215.746094 187.253906 L 296.515625 187.253906 L 374.996094 0.015625 L 294.222656 0.015625 " fill-opacity="1" fill-rule="nonzero"/><g clip-path="url(#f148b46fc6)"><path fill="#333333" d="M 268.261719 71.109375 L 304.34375 71.109375 L 304.34375 143.410156 L 268.261719 143.410156 Z M 268.261719 71.109375 " fill-opacity="1" fill-rule="nonzero"/></g></svg>